<svg width="30" height="30" viewBox="0 0 30 30" fill="none" xmlns="http://www.w3.org/2000/svg">
<path d="M20.4567 8.01904C18.0942 8.01904 17.0958 9.14639 15.4505 9.14639C13.7636 9.14639 12.4768 8.02725 10.4296 8.02725C8.42567 8.02725 6.28875 9.25068 4.93172 11.3349C3.02625 14.2739 3.34969 19.8093 6.43582 24.5249C7.53973 26.213 9.01395 28.1062 10.9475 28.1267H10.9827C12.6632 28.1267 13.1624 27.0263 15.4751 27.0134H15.5102C17.7884 27.0134 18.2454 28.1202 19.9188 28.1202H19.954C21.8876 28.0997 23.4409 26.0021 24.5448 24.3204C25.3393 23.111 25.6347 22.504 26.244 21.1358C21.7798 19.4413 21.0626 13.1126 25.4776 10.6862C24.13 8.99873 22.2362 8.02139 20.4509 8.02139L20.4567 8.01904Z" fill="black"/>
<path d="M19.9365 1.875C18.5302 1.97051 16.8896 2.86582 15.9287 4.03477C15.0568 5.09414 14.3396 6.66563 14.6209 8.18965H14.7334C16.231 8.18965 17.7638 7.28789 18.6591 6.13242C19.5216 5.03262 20.1755 3.47402 19.9365 1.875Z" fill="black"/>
</svg>
